<?xml version="1.0" encoding="UTF-8" standalone="no"?>
<!-- Generator: Adobe Illustrator 18.1.1, SVG Export Plug-In . SVG Version: 6.00 Build 0)  -->

<svg
   xmlns:dc="http://purl.org/dc/elements/1.1/"
   xmlns:cc="http://creativecommons.org/ns#"
   xmlns:rdf="http://www.w3.org/1999/02/22-rdf-syntax-ns#"
   xmlns:svg="http://www.w3.org/2000/svg"
   xmlns="http://www.w3.org/2000/svg"
   xmlns:sodipodi="http://sodipodi.sourceforge.net/DTD/sodipodi-0.dtd"
   xmlns:inkscape="http://www.inkscape.org/namespaces/inkscape"
   version="1.1"
   id="Capa_1"
   x="0px"
   y="0px"
   viewBox="0 0 536.11 536.11"
   style="enable-background:new 0 0 536.11 536.11;"
   xml:space="preserve"
   sodipodi:docname="github.svg"
   inkscape:version="0.92.1 r15371"><metadata
     id="metadata43"><rdf:RDF><cc:Work
         rdf:about=""><dc:format>image/svg+xml</dc:format><dc:type
           rdf:resource="http://purl.org/dc/dcmitype/StillImage" /></cc:Work></rdf:RDF></metadata><defs
     id="defs41" /><sodipodi:namedview
     pagecolor="#ffffff"
     bordercolor="#666666"
     borderopacity="1"
     objecttolerance="10"
     gridtolerance="10"
     guidetolerance="10"
     inkscape:pageopacity="0"
     inkscape:pageshadow="2"
     inkscape:window-width="1920"
     inkscape:window-height="1147"
     id="namedview39"
     showgrid="false"
     inkscape:zoom="0.44020818"
     inkscape:cx="268.05499"
     inkscape:cy="268.05499"
     inkscape:window-x="1592"
     inkscape:window-y="22"
     inkscape:window-maximized="1"
     inkscape:current-layer="Capa_1" /><path
     sodipodi:nodetypes="scccscscscccsssss"
     style="fill:#000000"
     d="m 267.75,0 c 37.128,0 71.91,7.038 104.345,21.114 32.439,14.076 60.793,33.252 85.068,57.528 24.277,24.276 43.453,52.632 57.529,85.068 14.072,32.436 21.111,67.218 21.111,104.346 0,37.127 -7.039,71.911 -21.111,104.346 -14.076,32.438 -33.252,60.791 -57.529,85.068 -24.275,24.275 -52.631,43.451 -85.068,57.527 -32.436,14.076 -67.217,21.113 -104.345,21.113 -37.128,0 -71.91,-7.037 -104.346,-21.111 C 130.968,500.923 102.612,481.747 78.336,457.472 54.06,433.195 34.986,404.839 21.114,372.404 7.242,339.967 0.306,305.184 0.306,268.056 0.306,230.928 7.242,196.146 21.114,163.71 34.986,131.274 54.06,102.918 78.336,78.642 102.612,54.366 130.968,35.19 163.404,21.114 195.84,7.038 230.622,0 267.75,0 Z"
     id="path4543"
     inkscape:connector-curvature="0" /><path
     inkscape:connector-curvature="0"
     id="path4541"
     d="m 267.75,0 c 37.128,0 71.91,7.038 104.345,21.114 32.439,14.076 60.793,33.252 85.068,57.528 24.277,24.276 43.453,52.632 57.529,85.068 14.072,32.436 21.111,67.218 21.111,104.346 0,37.127 -7.039,71.911 -21.111,104.346 -14.076,32.438 -33.252,60.791 -57.529,85.068 -24.275,24.275 -52.631,43.451 -85.068,57.527 -32.436,14.076 -67.217,21.113 -104.345,21.113 -37.128,0 -71.91,-7.037 -104.346,-21.111 C 130.968,500.923 102.612,481.747 78.336,457.472 54.06,433.195 34.986,404.839 21.114,372.404 7.242,339.967 0.306,305.184 0.306,268.056 0.306,230.928 7.242,196.146 21.114,163.71 34.986,131.274 54.06,102.918 78.336,78.642 102.612,54.366 130.968,35.19 163.404,21.114 195.84,7.038 230.622,0 267.75,0 Z m 0,29.376 c -33.048,0 -64.056,6.222 -93.024,18.666 C 145.758,60.486 120.462,77.52 98.838,99.144 77.214,120.768 60.18,146.064 47.736,175.032 35.292,204 29.07,235.008 29.07,268.056 c 0,33.047 6.222,64.055 18.666,93.024 12.444,28.969 29.478,54.264 51.102,75.889 21.624,21.623 46.92,38.658 75.888,51.102 28.968,12.443 59.976,18.666 93.024,18.666 33.048,0 64.056,-6.223 93.025,-18.666 28.967,-12.441 54.264,-29.479 75.887,-51.102 21.625,-21.625 38.658,-46.92 51.102,-75.889 12.445,-28.971 18.666,-59.979 18.666,-93.024 0,-33.046 -6.221,-64.056 -18.666,-93.024 C 475.323,146.064 458.287,120.768 436.662,99.144 415.039,77.52 389.742,60.486 360.775,48.042 331.806,35.598 300.798,29.376 267.75,29.376 Z"
     style="fill:#000000"
     sodipodi:nodetypes="scccscscscccsssssssssssccscscscccs" /><path
     style="fill:#ffffff"
     d="m 336.294,312.121 c 25.703,-8.979 38.555,-25.908 38.555,-50.797 0,-13.056 -2.141,-23.358 -6.426,-30.906 -4.283,-7.548 -11.117,-13.77 -20.502,-18.666 -4.488,-2.448 -9.791,-3.876 -15.912,-4.284 -6.119,-0.408 -12.645,-0.51 -19.584,-0.306 -6.936,0.204 -14.277,0.612 -22.031,1.224 -7.752,0.612 -15.504,0.918 -23.254,0.918 -7.752,0 -15.504,-0.306 -23.256,-0.918 -7.752,-0.612 -15.096,-1.02 -22.032,-1.224 -6.936,-0.204 -13.464,-0.102 -19.584,0.306 -6.12,0.408 -11.424,1.836 -15.912,4.284 -9.384,4.896 -16.116,11.118 -20.196,18.666 -4.08,7.548 -6.12,17.85 -6.12,30.906 0,24.889 12.852,41.82 38.556,50.797 4.488,1.223 9.384,2.445 14.688,3.672 4.488,0.813 10.098,1.631 16.83,2.445 6.732,0.816 14.586,1.227 23.562,1.227 h 26.927 c 8.568,0 16.32,-0.408 23.26,-1.227 6.936,-0.814 12.852,-1.633 17.748,-2.445 5.707,-1.225 10.603,-2.449 14.683,-3.672 z m 73.44,-88.741 c 0,13.056 -1.43,25.398 -4.283,37.026 -2.857,11.625 -8.16,22.135 -15.912,31.518 -7.752,9.385 -18.463,17.137 -32.131,23.256 -13.668,6.121 -31.109,9.996 -52.326,11.629 3.264,1.631 7.447,3.672 12.547,6.119 5.1,2.449 9.486,7.141 13.158,14.076 2.039,4.486 3.365,11.016 3.977,19.584 0.613,8.566 0.918,17.34 0.918,26.314 0,8.979 -0.102,17.238 -0.305,24.785 -0.205,7.549 0.102,12.141 0.918,13.771 1.631,3.264 3.979,6.119 7.037,8.566 3.061,2.447 5.611,4.283 7.65,5.508 2.039,1.227 2.65,2.756 1.836,4.592 -0.816,1.836 -3.672,2.959 -8.568,3.363 -2.447,0 -5.508,-0.404 -9.18,-1.223 -3.672,-0.816 -7.143,-2.244 -10.404,-4.285 -3.262,-2.039 -6.018,-4.59 -8.262,-7.646 -2.244,-3.063 -3.365,-7.039 -3.365,-11.938 v -50.184 c 0,-5.711 -1.326,-9.791 -3.98,-12.24 -2.648,-2.447 -5.402,-4.08 -8.262,-4.895 v 66.096 c 0,11.832 1.428,19.584 4.285,23.256 1.223,1.633 2.346,3.367 3.365,5.203 1.019,1.836 1.633,3.365 1.836,4.59 0.205,1.223 -0.51,1.938 -2.145,2.143 -1.631,0.203 -4.689,-0.307 -9.18,-1.529 -8.568,-2.039 -14.688,-6.732 -18.359,-14.076 -3.671,-7.344 -5.508,-15.096 -5.508,-23.256 V 358.632 H 261.63 v 64.871 c 0,8.16 -1.734,15.912 -5.202,23.256 -3.468,7.344 -9.69,12.037 -18.666,14.076 -4.488,1.225 -7.446,1.732 -8.874,1.529 -1.428,-0.203 -2.142,-0.92 -2.142,-2.143 0,-1.225 0.612,-2.754 1.836,-4.59 1.224,-1.836 2.448,-3.57 3.672,-5.203 0.816,-1.631 1.734,-4.488 2.754,-8.568 1.02,-4.078 1.53,-8.975 1.53,-14.688 v -66.096 c -2.856,0.814 -5.508,2.445 -7.956,4.896 -2.448,2.447 -3.672,6.527 -3.672,12.24 v 50.184 c 0,4.896 -1.122,8.873 -3.366,11.936 -2.244,3.061 -4.998,5.607 -8.262,7.648 -3.264,2.039 -6.732,3.471 -10.404,4.283 -3.672,0.816 -6.732,1.225 -9.18,1.225 -4.896,-0.406 -7.752,-1.527 -8.568,-3.363 -0.816,-1.836 -0.204,-3.367 1.836,-4.59 2.04,-1.227 4.59,-3.063 7.65,-5.512 3.06,-2.445 5.406,-5.303 7.038,-8.564 0.816,-2.041 1.122,-7.447 0.918,-16.221 -0.204,-8.771 -0.306,-18.463 -0.306,-29.068 -3.264,1.225 -7.548,2.041 -12.852,2.449 -5.304,0.404 -11.22,0 -17.748,-1.227 -11.016,-2.041 -19.38,-5.607 -25.092,-10.711 -5.712,-5.1 -11.22,-13.158 -16.524,-24.174 -2.856,-5.303 -6.018,-9.689 -9.486,-13.158 -3.468,-3.467 -6.528,-6.221 -9.18,-8.262 -2.652,-2.039 -4.692,-3.773 -6.12,-5.201 -1.428,-1.428 -1.53,-2.754 -0.306,-3.979 2.448,-2.855 5.814,-4.08 10.098,-3.674 4.284,0.408 6.834,1.021 7.65,1.836 4.896,2.039 9.792,6.324 14.688,12.854 4.896,6.531 9.996,12.037 15.3,16.523 2.448,2.039 5.508,4.078 9.18,6.119 3.672,2.039 7.752,3.471 12.24,4.283 4.488,0.816 9.384,0.816 14.688,0 5.304,-0.813 10.608,-3.059 15.912,-6.729 1.224,-5.307 3.162,-9.486 5.814,-12.549 2.652,-3.061 5.508,-5.508 8.568,-7.344 3.06,-1.836 5.916,-3.264 8.568,-4.285 2.652,-1.02 4.794,-1.938 6.426,-2.754 -22.44,-1.631 -40.8,-5.402 -55.08,-11.318 -14.28,-5.916 -25.602,-13.467 -33.966,-22.646 -8.364,-9.18 -14.076,-19.686 -17.136,-31.519 -3.06,-11.832 -4.59,-24.276 -4.59,-37.332 0,-13.464 2.04,-25.5 6.12,-36.108 4.08,-10.608 9.792,-19.992 17.136,-28.152 -3.264,-9.792 -4.386,-20.094 -3.366,-30.906 1.02,-10.812 3.162,-20.502 6.426,-29.07 15.504,0.816 28.458,4.08 38.862,9.792 10.404,5.712 17.646,10.404 21.726,14.076 17.544,-4.896 35.7,-7.344 54.468,-7.344 h 4.284 c 17.543,0 34.479,2.04 50.795,6.12 4.488,-3.672 11.832,-8.16 22.033,-13.464 10.199,-5.304 22.85,-8.364 37.943,-9.18 3.264,8.16 5.406,17.34 6.426,27.54 1.021,10.2 0.307,19.992 -2.141,29.376 8.16,8.16 14.48,17.85 18.971,29.07 4.489,11.228 6.733,23.978 6.733,38.258 z M 266.526,209.304 h 0.612 0.612 z m 78.948,47.736 c 0,5.712 -1.527,10.608 -4.59,14.688 -3.061,4.08 -6.834,6.119 -11.322,6.119 -4.486,0 -8.158,-2.039 -11.016,-6.119 -2.854,-4.081 -4.285,-8.977 -4.285,-14.688 0,-5.711 1.432,-10.608 4.285,-14.688 2.855,-4.08 6.527,-6.12 11.016,-6.12 4.489,0 8.264,2.04 11.322,6.12 3.061,4.08 4.59,8.976 4.59,14.688 z m -119.952,0 c 0,5.712 -1.53,10.608 -4.59,14.688 -3.06,4.08 -6.834,6.119 -11.322,6.119 -4.488,0 -8.16,-2.039 -11.016,-6.119 -2.856,-4.081 -4.284,-8.977 -4.284,-14.688 0,-5.711 1.428,-10.608 4.284,-14.688 2.856,-4.08 6.528,-6.12 11.016,-6.12 4.488,0 8.262,2.04 11.322,6.12 3.061,4.08 4.59,8.976 4.59,14.688 z"
     id="path2"
     inkscape:connector-curvature="0"
     sodipodi:nodetypes="cscccccsssscsscccsscccscccccccscccccccccssccscscccssccsscsssccsccssccccscccccccccccsccccccccccsccsccsscscscssccccccsccccscscscscsssscssscs" /><g
     id="g8" /><g
     id="g10" /><g
     id="g12" /><g
     id="g14" /><g
     id="g16" /><g
     id="g18" /><g
     id="g20" /><g
     id="g22" /><g
     id="g24" /><g
     id="g26" /><g
     id="g28" /><g
     id="g30" /><g
     id="g32" /><g
     id="g34" /><g
     id="g36" /></svg>