<?xml version="1.0" encoding="UTF-8" standalone="no"?>
<!-- Generator: Adobe Illustrator 18.0.0, SVG Export Plug-In . SVG Version: 6.00 Build 0)  -->

<svg
   xmlns:dc="http://purl.org/dc/elements/1.1/"
   xmlns:cc="http://creativecommons.org/ns#"
   xmlns:rdf="http://www.w3.org/1999/02/22-rdf-syntax-ns#"
   xmlns:svg="http://www.w3.org/2000/svg"
   xmlns="http://www.w3.org/2000/svg"
   xmlns:sodipodi="http://sodipodi.sourceforge.net/DTD/sodipodi-0.dtd"
   xmlns:inkscape="http://www.inkscape.org/namespaces/inkscape"
   version="1.1"
   id="Layer_1"
   x="0px"
   y="0px"
   viewBox="161.9 419.3 715.33593 715.33595"
   enable-background="new 161.9 419.3 468.1 380.4"
   xml:space="preserve"
   sodipodi:docname="twitter.svg"
   width="715.33594"
   height="715.33594"
   inkscape:version="0.92.1 r15371"><metadata
     id="metadata9"><rdf:RDF><cc:Work
         rdf:about=""><dc:format>image/svg+xml</dc:format><dc:type
           rdf:resource="http://purl.org/dc/dcmitype/StillImage" /><dc:title></dc:title></cc:Work></rdf:RDF></metadata><defs
     id="defs7" /><sodipodi:namedview
     pagecolor="#ffffff"
     bordercolor="#666666"
     borderopacity="1"
     objecttolerance="10"
     gridtolerance="10"
     guidetolerance="10"
     inkscape:pageopacity="0"
     inkscape:pageshadow="2"
     inkscape:window-width="1920"
     inkscape:window-height="1147"
     id="namedview5"
     showgrid="false"
     fit-margin-top="0"
     fit-margin-left="0"
     fit-margin-right="0"
     fit-margin-bottom="0"
     inkscape:zoom="0.60670796"
     inkscape:cx="393.92922"
     inkscape:cy="384.69226"
     inkscape:window-x="1592"
     inkscape:window-y="22"
     inkscape:window-maximized="1"
     inkscape:current-layer="Layer_1" /><path
     style="fill:#000000;stroke:none;stroke-width:7.55905533;stroke-linecap:round;stroke-miterlimit:4;stroke-dasharray:none;stroke-opacity:1"
     id="path4486"
     sodipodi:type="arc"
     sodipodi:cx="519.56799"
     sodipodi:cy="776.96796"
     sodipodi:rx="357.66797"
     sodipodi:ry="357.66797"
     sodipodi:start="0.32773793"
     sodipodi:end="0.26108729"
     sodipodi:open="true"
     d="M 858.19834,892.10206 A 357.66797,357.66797 0 0 1 410.0921,1117.4697 357.66797,357.66797 0 0 1 177.28949,673.18066 357.66797,357.66797 0 0 1 617.63788,433.00768 357.66797,357.66797 0 0 1 865.11455,869.2932" /><path
     d="m 698.36797,646.86797 c 19.5,-2.3 37.9,-7.5 55.2,-15.1 -12.9,19.3 -29.1,36.2 -47.9,49.7 0.2,4.1 0.3,8.3 0.3,12.4 0,126.9 -96.6,273.2 -273.2,273.2 -54.2,0 -104.7,-15.9 -147.2,-43.1 7.5,0.9 15.2,1.4 22.9,1.4 45,0 86.4,-15.4 119.3,-41.2 -42,-0.7 -77.5,-28.5 -89.7,-66.6 5.9,1.1 11.9,1.7 18.1,1.7 8.7,0 17.2,-1.2 25.3,-3.4 -43.9,-8.9 -77,-47.6 -77,-94.1 v -1.2 c 13,7.2 27.8,11.5 43.5,12 -25.8,-17.2 -42.7,-46.6 -42.7,-79.9 0,-17.6 4.7,-34.1 13,-48.2 47.4,58 118.1,96.3 198,100.3 -1.6,-7 -2.5,-14.3 -2.5,-21.9 0,-53 43,-96 96.1,-96 27.6,0 52.6,11.7 70.1,30.3 21.9,-4.3 42.4,-12.3 61,-23.3 -7.5,22.3 -22.7,41 -42.6,53"
     id="path2"
     style="fill:#ffffff"
     inkscape:connector-curvature="0" /></svg>